<svg width="1000" height="1000" viewBox="0 0 1000 1000" fill="none" xmlns="http://www.w3.org/2000/svg">
<path d="M476.97 15.15L470.6 20.05V88.42V156.79L476.97 161.69C480.65 164.63 486.53 166.84 490.2 166.84C493.88 166.84 499.76 164.63 503.43 161.69L509.8 156.79V88.42V20.05L503.43 15.15C499.76 12.21 493.87 9.99997 490.2 9.99997C486.52 9.99997 480.64 12.21 476.97 15.15Z" fill="white"/>
<path d="M290.48 59.5C283.37 63.42 279.45 69.06 279.45 75.67C279.45 84.25 342.92 193.78 349.53 196.73C361.05 202.12 377.47 192.07 377.47 179.82C377.47 172.71 318.66 67.83 310.82 60.73C305.19 56.07 297.59 55.33 290.48 59.5Z" fill="white"/>
<path d="M708.78 60.73C700.94 67.84 642.13 172.72 642.13 179.82C642.13 192.07 658.55 202.12 670.07 196.73C676.2 194.03 740.15 84.74 740.15 76.66C740.15 68.33 737.46 63.92 730.11 60.24C721.03 55.33 714.91 55.58 708.78 60.73Z" fill="white"/>
<path d="M481.62 189.13C382.62 197.95 293.42 268.28 259.12 364.59C224.08 462.36 254.71 586.36 338.52 685.36C352.98 702.27 361.8 710.36 387.78 730.45C392.19 734.13 392.44 737.31 392.19 790.98L391.94 847.58L398.8 855.42C412.52 871.84 415.95 872.57 506.87 872.57C597.05 872.57 599.99 872.08 605.13 857.62C606.85 852.96 607.83 829.44 607.83 798.07V746.36L638.7 714.5C708.05 642.95 746.52 583.89 763.68 522.14C772.75 489.06 774.71 433.43 767.6 399.62C748.24 306.26 681.83 231.52 591.65 201.38C556.36 189.62 520.83 185.7 481.62 189.13ZM627.18 314.35C634.78 318.52 648.01 329.3 656.83 338.12C697.02 378.8 709.76 437.85 690.89 494.71C685.5 511.13 666.88 541.02 655.12 552.05L648.01 558.91L638.94 546.66C634.04 540.04 629.87 533.92 629.87 532.94C629.87 532.2 633.3 527.55 637.22 522.89C646.29 512.6 655.11 495.69 660.26 478.29C665.16 461.87 665.41 427.56 660.75 410.41C653.15 381.49 631.83 352.58 608.07 339.1C601.94 335.42 596.55 332.24 596.06 331.99C595.57 331.74 596.06 325.13 596.8 317.53C598.76 303.56 598.76 303.56 606.11 305.03C610.03 305.77 619.58 309.94 627.18 314.35Z" fill="white"/>
<path d="M154.24 211.19C149.09 216.83 147.13 221.24 147.13 227.85V236.92L190.99 262.16C223.09 280.54 236.32 286.91 240 285.68C247.35 283.47 254.95 271.47 254.95 261.91C254.95 253.82 254.22 253.33 211.33 228.58C187.56 214.86 166.49 203.58 164.53 203.58C162.81 203.59 158.16 207.02 154.24 211.19Z" fill="white"/>
<path d="M798.23 228.58C755.35 253.33 754.86 253.82 754.86 261.91C754.86 271.47 762.46 283.47 769.81 285.68C773.49 286.91 785.74 281.27 814.41 264.61C836.22 252.11 856.07 240.35 858.52 238.39C865.14 232.51 863.91 220.01 855.58 211.19C851.66 207.02 847 203.59 845.04 203.59C843.31 203.59 822.24 214.86 798.23 228.58Z" fill="white"/>
<path d="M87.34 378.06C81.7 386.15 82.68 397.42 89.55 405.02L95.43 411.88H142.23H189.03L194.91 405.02C201.77 397.42 202.75 386.15 197.12 378.06C193.44 372.67 192.22 372.67 142.23 372.67C92.24 372.67 91.01 372.67 87.34 378.06Z" fill="white"/>
<path d="M802.88 387.87C797.25 395.96 798.23 407.23 805.09 414.83L810.97 421.69H857.77H904.57L910.45 414.83C917.31 407.23 918.29 395.96 912.66 387.87C908.98 382.48 907.76 382.48 857.77 382.48C807.78 382.47 806.55 382.47 802.88 387.87Z" fill="white"/>
<path d="M431.39 932.61C431.39 961.53 438.99 975.49 460.31 986.52C467.17 989.95 474.77 990.44 507.36 989.71C544.85 988.98 546.32 988.73 552.94 982.85C564.45 972.07 568.62 959.57 568.62 934.33V911.78H500H431.39V932.61Z" fill="white"/>
</svg>
